<svg width="358" height="77" viewBox="0 0 358 77" fill="none" xmlns="http://www.w3.org/2000/svg">
<path d="M42.2811 52.497C42.8334 52.497 43.2811 52.0492 43.2811 51.497V11.4099C43.2811 10.522 44.3519 10.0745 44.9837 10.6983L58.6681 24.2095C58.8584 24.3974 58.9655 24.6537 58.9655 24.9211V66.9828C58.9655 67.535 58.5178 67.9828 57.9655 67.9828H15.9001C15.6349 67.9828 15.3805 67.8774 15.193 67.6899L1.70712 54.2041C1.07715 53.5741 1.52332 52.497 2.41422 52.497H42.2811Z" fill="black"/>
<path d="M20.8391 9.01725H1C0.447715 9.01725 0 9.46496 0 10.0172V29.8563C0 30.4086 0.447715 30.8563 1 30.8563H20.8391C21.3914 30.8563 21.8391 30.4086 21.8391 29.8563V10.0172C21.8391 9.46496 21.3914 9.01725 20.8391 9.01725Z" fill="black"/>
<path d="M99.8746 62H81.9655V15.4545H99.6928C104.481 15.4545 108.617 16.3864 112.102 18.25C115.602 20.0985 118.299 22.7651 120.193 26.25C122.102 29.7197 123.056 33.8788 123.056 38.7273C123.056 43.5758 122.109 47.7424 120.216 51.2273C118.322 54.697 115.64 57.3636 112.17 59.2273C108.7 61.0758 104.602 62 99.8746 62ZM94.6019 51.2727H99.4201C101.723 51.2727 103.685 50.9015 105.306 50.1591C106.943 49.4167 108.185 48.1364 109.034 46.3182C109.897 44.5 110.329 41.9697 110.329 38.7273C110.329 35.4848 109.89 32.9545 109.011 31.1364C108.147 29.3182 106.875 28.0379 105.193 27.2955C103.526 26.553 101.481 26.1818 99.0564 26.1818H94.6019V51.2727ZM138.812 62.5455C136.585 62.5455 134.615 62.1818 132.903 61.4545C131.206 60.7121 129.873 59.5909 128.903 58.0909C127.933 56.5909 127.448 54.6818 127.448 52.3636C127.448 50.4545 127.774 48.8258 128.426 47.4773C129.077 46.1136 129.986 45 131.153 44.1364C132.32 43.2727 133.676 42.6136 135.221 42.1591C136.782 41.7045 138.464 41.4091 140.267 41.2727C142.221 41.1212 143.789 40.9394 144.971 40.7273C146.168 40.5 147.032 40.1894 147.562 39.7955C148.092 39.3864 148.358 38.8485 148.358 38.1818V38.0909C148.358 37.1818 148.009 36.4848 147.312 36C146.615 35.5152 145.721 35.2727 144.63 35.2727C143.433 35.2727 142.456 35.5379 141.698 36.0682C140.956 36.5833 140.509 37.3788 140.358 38.4545H128.812C128.964 36.3333 129.638 34.3788 130.835 32.5909C132.047 30.7879 133.812 29.3485 136.13 28.2727C138.448 27.1818 141.342 26.6364 144.812 26.6364C147.312 26.6364 149.555 26.9318 151.539 27.5227C153.524 28.0985 155.214 28.9091 156.608 29.9545C158.002 30.9848 159.062 32.197 159.789 33.5909C160.532 34.9697 160.903 36.4697 160.903 38.0909V62H149.176V57.0909H148.903C148.206 58.3939 147.358 59.447 146.358 60.25C145.373 61.053 144.244 61.6364 142.971 62C141.714 62.3636 140.327 62.5455 138.812 62.5455ZM142.903 54.6364C143.858 54.6364 144.751 54.4394 145.585 54.0455C146.433 53.6515 147.123 53.0833 147.653 52.3409C148.183 51.5985 148.448 50.697 148.448 49.6364V46.7273C148.115 46.8636 147.759 46.9924 147.38 47.1136C147.017 47.2348 146.623 47.3485 146.198 47.4545C145.789 47.5606 145.35 47.6591 144.88 47.75C144.426 47.8409 143.948 47.9242 143.448 48C142.479 48.1515 141.683 48.4015 141.062 48.75C140.456 49.0833 140.002 49.5 139.698 50C139.411 50.4848 139.267 51.0303 139.267 51.6364C139.267 52.6061 139.608 53.3485 140.289 53.8636C140.971 54.3788 141.842 54.6364 142.903 54.6364ZM166.897 62V27.0909H179.079V33.7273H179.443C180.079 31.2727 181.087 29.4773 182.466 28.3409C183.859 27.2045 185.488 26.6364 187.352 26.6364C187.897 26.6364 188.435 26.6818 188.966 26.7727C189.511 26.8485 190.034 26.9621 190.534 27.1136V37.8182C189.912 37.6061 189.147 37.447 188.238 37.3409C187.329 37.2348 186.549 37.1818 185.897 37.1818C184.67 37.1818 183.564 37.4621 182.579 38.0227C181.609 38.5682 180.844 39.3409 180.284 40.3409C179.723 41.3258 179.443 42.4848 179.443 43.8182V62H166.897ZM216.903 27.0909V36.1818H193.903V27.0909H216.903ZM198.358 18.7273H210.903V50.7727C210.903 51.2576 210.986 51.6667 211.153 52C211.32 52.3182 211.577 52.5606 211.926 52.7273C212.274 52.8788 212.721 52.9545 213.267 52.9545C213.645 52.9545 214.085 52.9091 214.585 52.8182C215.1 52.7273 215.479 52.6515 215.721 52.5909L217.539 61.4091C216.979 61.5758 216.176 61.7803 215.13 62.0227C214.1 62.2652 212.873 62.4242 211.448 62.5C208.57 62.6515 206.153 62.3561 204.198 61.6136C202.244 60.8561 200.774 59.6667 199.789 58.0455C198.805 56.4242 198.327 54.3939 198.358 51.9545V18.7273ZM238.466 62.6364C234.678 62.6364 231.435 61.8864 228.738 60.3864C226.041 58.8712 223.973 56.7652 222.534 54.0682C221.094 51.3561 220.375 48.2121 220.375 44.6364C220.375 41.0606 221.094 37.9242 222.534 35.2273C223.973 32.5152 226.041 30.4091 228.738 28.9091C231.435 27.3939 234.678 26.6364 238.466 26.6364C241.89 26.6364 244.852 27.2576 247.352 28.5C249.867 29.7273 251.814 31.4697 253.193 33.7273C254.572 35.9697 255.269 38.6061 255.284 41.6364H243.647C243.481 39.803 242.95 38.4091 242.056 37.4545C241.178 36.4848 240.041 36 238.647 36C237.556 36 236.602 36.3182 235.784 36.9545C234.966 37.5758 234.329 38.5227 233.875 39.7955C233.42 41.053 233.193 42.6364 233.193 44.5455C233.193 46.4545 233.42 48.0455 233.875 49.3182C234.329 50.5758 234.966 51.5227 235.784 52.1591C236.602 52.7803 237.556 53.0909 238.647 53.0909C239.572 53.0909 240.39 52.8788 241.102 52.4545C241.814 52.0152 242.39 51.3788 242.829 50.5455C243.284 49.697 243.556 48.6667 243.647 47.4545H255.284C255.238 50.5303 254.534 53.2121 253.17 55.5C251.806 57.7727 249.875 59.5303 247.375 60.7727C244.89 62.0152 241.92 62.6364 238.466 62.6364ZM277.278 62.6364C273.49 62.6364 270.248 61.8864 267.551 60.3864C264.854 58.8712 262.786 56.7652 261.346 54.0682C259.907 51.3561 259.187 48.2121 259.187 44.6364C259.187 41.0606 259.907 37.9242 261.346 35.2273C262.786 32.5152 264.854 30.4091 267.551 28.9091C270.248 27.3939 273.49 26.6364 277.278 26.6364C281.066 26.6364 284.308 27.3939 287.005 28.9091C289.702 30.4091 291.77 32.5152 293.21 35.2273C294.649 37.9242 295.369 41.0606 295.369 44.6364C295.369 48.2121 294.649 51.3561 293.21 54.0682C291.77 56.7652 289.702 58.8712 287.005 60.3864C284.308 61.8864 281.066 62.6364 277.278 62.6364ZM277.369 53.3636C278.43 53.3636 279.346 53.0076 280.119 52.2955C280.892 51.5833 281.49 50.5682 281.914 49.25C282.339 47.9318 282.551 46.3636 282.551 44.5455C282.551 42.7121 282.339 41.1439 281.914 39.8409C281.49 38.5227 280.892 37.5076 280.119 36.7955C279.346 36.0833 278.43 35.7273 277.369 35.7273C276.248 35.7273 275.286 36.0833 274.483 36.7955C273.68 37.5076 273.066 38.5227 272.642 39.8409C272.217 41.1439 272.005 42.7121 272.005 44.5455C272.005 46.3636 272.217 47.9318 272.642 49.25C273.066 50.5682 273.68 51.5833 274.483 52.2955C275.286 53.0076 276.248 53.3636 277.369 53.3636ZM300.46 62V27.0909H312.369V33.7273H312.733C313.46 31.5455 314.702 29.8182 316.46 28.5455C318.217 27.2727 320.308 26.6364 322.733 26.6364C325.187 26.6364 327.301 27.2879 329.073 28.5909C330.846 29.8788 331.914 31.5909 332.278 33.7273H332.642C333.233 31.5909 334.49 29.8788 336.414 28.5909C338.339 27.2879 340.596 26.6364 343.187 26.6364C346.536 26.6364 349.248 27.7121 351.323 29.8636C353.414 32.0152 354.46 34.8788 354.46 38.4545V62H341.914V41.6364C341.914 40.1061 341.528 38.9091 340.755 38.0455C339.983 37.1667 338.945 36.7273 337.642 36.7273C336.354 36.7273 335.331 37.1667 334.573 38.0455C333.831 38.9091 333.46 40.1061 333.46 41.6364V62H321.46V41.6364C321.46 40.1061 321.073 38.9091 320.301 38.0455C319.528 37.1667 318.49 36.7273 317.187 36.7273C316.323 36.7273 315.581 36.9242 314.96 37.3182C314.339 37.7121 313.854 38.2803 313.505 39.0227C313.172 39.75 313.005 40.6212 313.005 41.6364V62H300.46Z" fill="black"/>
</svg>
